# xmcd
#
# Track frame offsets: 
#        150
#        9721
#        31580
#        48274
#        68116
#        78864
#        89197
#        115504
#        120122
#        129744
#        169196
#        173797
#        182688
#        191908
#        206864
#
# Disc length: 2983 seconds
#
# Revision: 0
# Processed by: cddbd v1.5.2PL0 Copyright (c) Steve Scherf et al.
# Submitted via: ExactAudioCopy v1.3
#
DISCID=c50ba50f
DTITLE=James Brown - The Hits And More Live
DYEAR=2007
DGENRE=Soul
TTITLE0=Give It Up Or Turnit A Loose
TTITLE1=It's Too Funky In Here
TTITLE2=Gonna Have A Funky Good Time
TTITLE3=Try Me
TTITLE4=Get On The Good Foot
TTITLE5=Get Up Offa That Thing
TTITLE6=Georgia On My Mind
TTITLE7=Hot Pants
TTITLE8=I Got The Feelin'
TTITLE9=It's A Man's Man's Man's World
TTITLE10=Cold Sweat
TTITLE11=I Can't Stand It
TTITLE12=Papa's Got A Brand New Bag
TTITLE13=I Feel Good
TTITLE14=Please, Please, Please
EXTD=
EXTT0=
EXTT1=
EXTT2=
EXTT3=
EXTT4=
EXTT5=
EXTT6=
EXTT7=
EXTT8=
EXTT9=
EXTT10=
EXTT11=
EXTT12=
EXTT13=
EXTT14=
PLAYORDER=
